{
  "accessors": [
    {
      "bufferView": 2,
      "componentType": 5126,
      "count": 1456,
      "max": [
        0.4540092945098877,
        0.3902813196182251,
        0.44030508399009705
      ],
      "min": [
        -0.4777362644672394,
        0.11390145123004913,
        -0.446846067905426
      ],
      "type": "VEC3"
    },
    {
      "bufferView": 2,
      "byteOffset": 17472,
      "componentType": 5126,
      "count": 1456,
      "max": [
        0.999398946762085,
        0.9993497729301453,
        0.9998332858085632
      ],
      "min": [
        -0.9984617829322815,
        -0.9998987913131714,
        -0.9992427229881287
      ],
      "type": "VEC3"
    },
    {
      "bufferView": 3,
      "componentType": 5126,
      "count": 1456,
      "max": [
        0.8455010652542114,
        0.9993978142738342,
        0.945523202419281,
        -1.0
      ],
      "min": [
        -0.891950249671936,
        -0.99952232837677,
        -0.895483136177063,
        -1.0
      ],
      "type": "VEC4"
    },
    {
      "bufferView": 1,
      "componentType": 5126,
      "count": 1456,
      "max": [
        0.9998539686203003,
        0.9998539686203003
      ],
      "min": [
        0.00014601486327592283,
        0.45975637435913086
      ],
      "type": "VEC2"
    },
    {
      "bufferView": 1,
      "byteOffset": 11648,
      "componentType": 5126,
      "count": 1456,
      "max": [
        0.9998539686203003,
        0.9998539686203003
      ],
      "min": [
        0.00014601486327592283,
        0.45975637435913086
      ],
      "type": "VEC2"
    },
    {
      "bufferView": 1,
      "byteOffset": 23296,
      "componentType": 5126,
      "count": 1456,
      "max": [
        0.9998539686203003,
        0.9998539686203003
      ],
      "min": [
        0.00014601486327592283,
        0.45975637435913086
      ],
      "type": "VEC2"
    },
    {
      "bufferView": 0,
      "componentType": 5125,
      "count": 8064,
      "type": "SCALAR"
    }
  ],
  "asset": {
    "extras": {
      "author": "axonology (https://sketchfab.com/axonology)",
      "license": "CC-BY-NC-SA-4.0 (http://creativecommons.org/licenses/by-nc-sa/4.0/)",
      "source": "https://sketchfab.com/3d-models/erythrocyte-red-blood-cell-5a9ccefc7b7749b1ba33043243e3ddee",
      "title": "Erythrocyte - red blood cell"
    },
    "generator": "Sketchfab-16.63.0",
    "version": "2.0"
  },
  "bufferViews": [
    {
      "buffer": 0,
      "byteLength": 32256,
      "name": "floatBufferViews",
      "target": 34963
    },
    {
      "buffer": 0,
      "byteLength": 34944,
      "byteOffset": 32256,
      "byteStride": 8,
      "name": "floatBufferViews",
      "target": 34962
    },
    {
      "buffer": 0,
      "byteLength": 34944,
      "byteOffset": 67200,
      "byteStride": 12,
      "name": "floatBufferViews",
      "target": 34962
    },
    {
      "buffer": 0,
      "byteLength": 23296,
      "byteOffset": 102144,
      "byteStride": 16,
      "name": "floatBufferViews",
      "target": 34962
    }
  ],
  "buffers": [
    {
      "byteLength": 125440,
      "uri": "scene.bin"
    }
  ],
  "images": [
    {
      "uri": "textures/RBCtexture_metallicRoughness.png"
    },
    {
      "uri": "textures/RBCtexture_normal.png"
    }
  ],
  "materials": [
    {
      "doubleSided": true,
      "name": "RBCtexture",
      "normalTexture": {
        "index": 1
      },
      "pbrMetallicRoughness": {
        "baseColorFactor": [
          0.267004,
          0.00330571,
          0.00703126,
          1.0
        ],
        "metallicFactor": 0.0,
        "metallicRoughnessTexture": {
          "index": 0
        },
        "roughnessFactor": 0.0
      }
    }
  ],
  "meshes": [
    {
      "name": "Object_0",
      "primitives": [
        {
          "attributes": {
            "NORMAL": 1,
            "POSITION": 0,
            "TANGENT": 2,
            "TEXCOORD_0": 3,
            "TEXCOORD_1": 4,
            "TEXCOORD_2": 5
          },
          "indices": 6,
          "material": 0,
          "mode": 4
        }
      ]
    }
  ],
  "nodes": [
    {
      "children": [
        1
      ],
      "matrix": [
        1.0,
        0.0,
        0.0,
        0.0,
        0.0,
        2.220446049250313e-16,
        -1.0,
        0.0,
        0.0,
        1.0,
        2.220446049250313e-16,
        0.0,
        0.0,
        0.0,
        0.0,
        1.0
      ],
      "name": "Sketchfab_model"
    },
    {
      "children": [
        2
      ],
      "name": "root"
    },
    {
      "children": [
        3
      ],
      "matrix": [
        1.0,
        0.0,
        0.0,
        0.0,
        0.0,
        2.220446049250313e-16,
        1.0,
        0.0,
        0.0,
        -1.0,
        2.220446049250313e-16,
        0.0,
        0.0,
        0.0,
        0.0,
        1.0
      ],
      "name": "GLTF_SceneRootNode"
    },
    {
      "children": [
        4
      ],
      "matrix": [
        1.0,
        0.0,
        0.0,
        0.0,
        0.0,
        1.0,
        0.0,
        0.0,
        0.0,
        0.0,
        1.0,
        0.0,
        0.17269018292427063,
        0.8163958787918091,
        0.47588980197906494,
        1.0
      ],
      "name": "erythrocyte texture test_0"
    },
    {
      "mesh": 0,
      "name": "Object_4"
    }
  ],
  "samplers": [
    {
      "magFilter": 9729,
      "minFilter": 9987,
      "wrapS": 10497,
      "wrapT": 10497
    }
  ],
  "scene": 0,
  "scenes": [
    {
      "name": "Sketchfab_Scene",
      "nodes": [
        0
      ]
    }
  ],
  "textures": [
    {
      "sampler": 0,
      "source": 0
    },
    {
      "sampler": 0,
      "source": 1
    }
  ]
}
